<svg xmlns="http://www.w3.org/2000/svg" viewBox="0 0 64 64" id="cloudy-day"><g data-name="Layer 4"><circle cx="42.18" cy="28.82" r="13.22" fill="#f8b234"></circle><path fill="#ededed" d="M64,46.42A10.52,10.52,0,0,1,53.51,57h-43a10.54,10.54,0,0,1,0-21.08,14.68,14.68,0,0,1,28.79-4.11,10.45,10.45,0,0,1,13.87,4.12h.36A10.52,10.52,0,0,1,64,46.42Z"></path><path fill="#e2e2e2" d="M64,46.42A10.52,10.52,0,0,1,53.51,57h-43A10.52,10.52,0,0,1,0,46.42,10.69,10.69,0,0,1,.58,43,10.51,10.51,0,0,0,10.49,50h43A10.51,10.51,0,0,0,63.42,43,10.69,10.69,0,0,1,64,46.42Z"></path><path fill="#282f39" d="M53.51 35.88h-.15A13.22 13.22 0 1 0 30.73 22.21 14.69 14.69 0 0 0 10.49 35.88a10.54 10.54 0 0 0 0 21.08h43a10.54 10.54 0 0 0 0-21.08zM42.18 17.6A11.23 11.23 0 0 1 53.4 28.82 11.09 11.09 0 0 1 52 34.25a10.45 10.45 0 0 0-12.71-2.48 14.68 14.68 0 0 0-6.75-8.66A11.19 11.19 0 0 1 42.18 17.6zM53.51 55h-43a8.54 8.54 0 0 1 0-17.08 2 2 0 0 0 2-2A12.74 12.74 0 0 1 25.18 23.12a12.5 12.5 0 0 1 4.68.91 11.15 11.15 0 0 1 1.8.89 12.74 12.74 0 0 1 5.7 7.4 2 2 0 0 0 1.13 1.28 2 2 0 0 0 .79.17 2 2 0 0 0 .91-.22 8.35 8.35 0 0 1 3.88-.94A8.49 8.49 0 0 1 50.81 36a8 8 0 0 1 .61.91 1.85 1.85 0 0 0 .67.69 2 2 0 0 0 1.08.32h.34a8.54 8.54 0 0 1 0 17.08zM42.18 13.76a1 1 0 0 0 1-1V8a1 1 0 0 0-2 0v4.72A1 1 0 0 0 42.18 13.76z"></path><path fill="#282f39" d="M57.23 28.82a1 1 0 0 0 1 1H63a1 1 0 0 0 0-2H58.23A1 1 0 0 0 57.23 28.82zM30.12 18.17a1 1 0 0 0 1.41 0 1 1 0 0 0 0-1.41l-3.34-3.34a1 1 0 1 0-1.41 1.41zM53.53 18.46a1 1 0 0 0 .71-.29l3.34-3.34a1 1 0 0 0 0-1.41 1 1 0 0 0-1.42 0l-3.33 3.34a1 1 0 0 0 0 1.41A1 1 0 0 0 53.53 18.46z"></path></g></svg>