<svg xmlns="http://www.w3.org/2000/svg" data-name="Layer 1" viewBox="0 0 64 64" id="cloud"><path fill="#ededed" d="M64,39.38A10.52,10.52,0,0,1,53.51,49.92h-43a10.54,10.54,0,0,1,0-21.08,14.68,14.68,0,0,1,28.79-4.11,10.45,10.45,0,0,1,13.87,4.12h.36A10.52,10.52,0,0,1,64,39.38Z"></path><path fill="#e0dfde" d="M64,39.38A10.52,10.52,0,0,1,53.51,49.92h-43A10.52,10.52,0,0,1,0,39.38a10.41,10.41,0,0,1,.41-2.92,10.5,10.5,0,0,0,10.08,7.62h43a10.5,10.5,0,0,0,10.08-7.62A10.41,10.41,0,0,1,64,39.38Z"></path><path fill="#282f39" d="M25.18,16.08a12.73,12.73,0,0,1,12.18,9.2,2,2,0,0,0,1.13,1.28,2,2,0,0,0,.79.17,1.92,1.92,0,0,0,.91-.23,8.49,8.49,0,0,1,11.23,3.34,2,2,0,0,0,1.75,1h.34a8.54,8.54,0,0,1,0,17.08h-43a8.54,8.54,0,0,1,0-17.08,2,2,0,0,0,2-2A12.74,12.74,0,0,1,25.18,16.08m0-2A14.73,14.73,0,0,0,10.49,28.84a10.54,10.54,0,0,0,0,21.08h43a10.54,10.54,0,0,0,0-21.08h-.36a10.45,10.45,0,0,0-13.87-4.12,14.68,14.68,0,0,0-14.1-10.65Z"></path></svg>