<svg xmlns="http://www.w3.org/2000/svg" viewBox="0 0 64 64" id="moon"><g data-name="Layer 3"><path fill="#f8b234" d="M63,46.75A33.25,33.25,0,0,1,1,30.41,32.91,32.91,0,0,1,19.9.71a32.56,32.56,0,0,0-4.38,16.34A33,33,0,0,0,48.71,49.93,33.57,33.57,0,0,0,63,46.75Z"></path><path fill="#f7a623" d="M63,46.75A33.25,33.25,0,0,1,1,30.41,32.53,32.53,0,0,1,7.26,11.19,32.49,32.49,0,0,0,4,25.41,33.26,33.26,0,0,0,62.08,47.16Z"></path><path fill="#282f39" d="M34.19,64.29A34.08,34.08,0,0,1,0,30.41,34.07,34.07,0,0,1,19.47-.19a1,1,0,0,1,1.29,1.4,31.74,31.74,0,0,0-4.24,15.84A32.07,32.07,0,0,0,48.71,48.93a32.32,32.32,0,0,0,13.86-3.09,1,1,0,0,1,1.3,1.41A34.37,34.37,0,0,1,34.19,64.29ZM17.54,3.11A32.06,32.06,0,0,0,2,30.41,32.07,32.07,0,0,0,34.19,62.29,32.38,32.38,0,0,0,60.41,48.9a34.28,34.28,0,0,1-11.7,2A34.08,34.08,0,0,1,14.52,17.05,33.75,33.75,0,0,1,17.54,3.11Z"></path></g></svg>