<svg xmlns="http://www.w3.org/2000/svg" viewBox="0 0 64 64" id="rainy-night"><g data-name="Layer 11"><path fill="#f8b234" d="M63 23.33a16.85 16.85 0 0 1-31.7-7.1 16.68 16.68 0 0 1 9-15.39 16.56 16.56 0 0 0-1.91 8.35 16.75 16.75 0 0 0 17.43 16A16.89 16.89 0 0 0 63 23.33Z"></path><path fill="#ededed" d="M64 40.57a10.54 10.54 0 0 1-10.49 10.59h-43a10.59 10.59 0 0 1 0-21.18 14.67 14.67 0 0 1 28.79-4.12 10.31 10.31 0 0 1 4.79-1.17A10.45 10.45 0 0 1 53.15 30a2.11 2.11 0 0 1 .36 0A10.55 10.55 0 0 1 64 40.57Z"></path><path fill="#e0dfde" d="M64 40.57a10.54 10.54 0 0 1-10.49 10.59h-43A10.6 10.6 0 0 1 .43 37.57a10.5 10.5 0 0 0 10.06 7.59h43a10.5 10.5 0 0 0 10.06-7.59 10.61 10.61 0 0 1 .45 3Z"></path><path fill="#282f39" d="M57.31 30.7a17.82 17.82 0 0 0 6.55-6.9 1 1 0 0 0-1.34-1.36 15.92 15.92 0 0 1-6.76 1.78A15.83 15.83 0 0 1 44.41 20a15.53 15.53 0 0 1-3.24-18.7A1 1 0 0 0 39.82 0a17.77 17.77 0 0 0-9.55 16.13 14.36 14.36 0 0 0-5.09-.92A14.76 14.76 0 0 0 10.49 30a10.59 10.59 0 0 0 0 21.18h43a10.6 10.6 0 0 0 3.8-20.46zm-25-14.51a15.74 15.74 0 0 1 5.82-12.76 17.73 17.73 0 0 0-.76 5.8 17.51 17.51 0 0 0 5.69 12.29 17.74 17.74 0 0 0 12.77 4.69 17.44 17.44 0 0 0 4.52-.74A15.64 15.64 0 0 1 54.24 30H53.15a10.44 10.44 0 0 0-13.87-4.14 14.78 14.78 0 0 0-7-8.81c.02-.29 0-.58-.01-.86zm21.24 33h-43a8.59 8.59 0 0 1 0-17.18 2 2 0 0 0 2-2 12.77 12.77 0 0 1 12.63-12.85 12.51 12.51 0 0 1 5.29 1.18 12.25 12.25 0 0 1 2.35 1.42 12.79 12.79 0 0 1 4.54 6.64 2 2 0 0 0 1.13 1.29 2 2 0 0 0 .79.16 2 2 0 0 0 .92-.22 8.41 8.41 0 0 1 3.87-.94 8.5 8.5 0 0 1 7.3 4.22v.07a2 2 0 0 0 1.76 1h.34a7.22 7.22 0 0 1 1.05.07 8.59 8.59 0 0 1-1.05 17.11zM9 56.16a1 1 0 0 1-1-1v-2a1 1 0 0 1 2 0v2a1 1 0 0 1-1 1zm0 8a1 1 0 0 1-1-1v-4a1 1 0 0 1 2 0v4a1 1 0 0 1-1 1zm9.2-9a1 1 0 0 1-1-1v-1a1 1 0 0 1 2 0v1a1 1 0 0 1-1 1zm0 7a1 1 0 0 1-1-1v-3a1 1 0 0 1 2 0v3a1 1 0 0 1-1 1zm9.2-6a1 1 0 0 1-1-1v-2a1 1 0 0 1 2 0v2a1 1 0 0 1-1 1zm0 8a1 1 0 0 1-1-1v-4a1 1 0 0 1 2 0v4a1 1 0 0 1-1 1zm9.2-9a1 1 0 0 1-1-1v-1a1 1 0 0 1 2 0v1a1 1 0 0 1-1 1zm0 7a1 1 0 0 1-1-1v-3a1 1 0 0 1 2 0v3a1 1 0 0 1-1 1zm9.2-6a1 1 0 0 1-1-1v-2a1 1 0 0 1 2 0v2a1 1 0 0 1-1 1zm0 8a1 1 0 0 1-1-1v-4a1 1 0 0 1 2 0v4a1 1 0 0 1-1 1zm9.2-9a1 1 0 0 1-1-1v-1a1 1 0 0 1 2 0v1a1 1 0 0 1-1 1zm0 7a1 1 0 0 1-1-1v-3a1 1 0 0 1 2 0v3a1 1 0 0 1-1 1z"></path></g></svg>