<svg xmlns="http://www.w3.org/2000/svg" viewBox="0 0 64 64" id="rain"><g data-name="Layer 9"><path fill="#ededed" d="M64,25.3A10.52,10.52,0,0,1,53.51,35.84h-43a10.54,10.54,0,0,1,0-21.08,14.68,14.68,0,0,1,28.79-4.11,10.45,10.45,0,0,1,13.87,4.12h.36A10.52,10.52,0,0,1,64,25.3Z"></path><path fill="#e0dfde" d="M64,25.3A10.52,10.52,0,0,1,53.51,35.84h-43A10.56,10.56,0,0,1,.43,22.3a10.51,10.51,0,0,0,10.06,7.54h43A10.51,10.51,0,0,0,63.57,22.3,10.61,10.61,0,0,1,64,25.3Z"></path><path fill="#282f39" d="M25.18 2a12.73 12.73 0 0 1 12.18 9.2 2 2 0 0 0 1.13 1.28 2 2 0 0 0 .79.17 1.92 1.92 0 0 0 .91-.23 8.49 8.49 0 0 1 11.23 3.34 2 2 0 0 0 1.75 1h.34a8.54 8.54 0 0 1 0 17.08h-43a8.54 8.54 0 0 1 0-17.08 2 2 0 0 0 2-2A12.74 12.74 0 0 1 25.18 2m0-2A14.73 14.73 0 0 0 10.49 14.76a10.54 10.54 0 0 0 0 21.08h43a10.54 10.54 0 0 0 0-21.08h-.36a10.45 10.45 0 0 0-13.87-4.12A14.68 14.68 0 0 0 25.18 0zM47 40.84H5a1 1 0 0 1 0-2H47a1 1 0 0 1 0 2z"></path><path fill="#282f39" d="M54.75 45.84h-43a1 1 0 0 1 0-2h43a2.5 2.5 0 0 0 0-5 1 1 0 0 1 0-2 4.5 4.5 0 0 1 0 9zM12.87 51.84a1.13 1.13 0 0 1-.5-.13A1 1 0 0 1 12 50.34l1.13-2A1 1 0 0 1 14.49 48a1 1 0 0 1 .38 1.36l-1.13 2A1 1 0 0 1 12.87 51.84zM8.33 59.84a1.05 1.05 0 0 1-.49-.13 1 1 0 0 1-.38-1.37l2.27-4A1 1 0 0 1 11.09 54a1 1 0 0 1 .38 1.36l-2.27 4A1 1 0 0 1 8.33 59.84zM24.87 51.84a1.13 1.13 0 0 1-.5-.13A1 1 0 0 1 24 50.34l1.13-2A1 1 0 0 1 26.49 48a1 1 0 0 1 .38 1.36l-1.13 2A1 1 0 0 1 24.87 51.84zM21.46 57.84a1.12 1.12 0 0 1-.49-.13 1 1 0 0 1-.38-1.37l1.7-3a1 1 0 0 1 1.75 1l-1.71 3A1 1 0 0 1 21.46 57.84zM18.06 63.84a1.05 1.05 0 0 1-.49-.13 1 1 0 0 1-.38-1.37l1.14-2A1 1 0 0 1 19.69 60a1 1 0 0 1 .38 1.36l-1.14 2A1 1 0 0 1 18.06 63.84zM36.87 51.84a1.13 1.13 0 0 1-.5-.13A1 1 0 0 1 36 50.34l1.13-2A1 1 0 0 1 38.49 48a1 1 0 0 1 .38 1.36l-1.13 2A1 1 0 0 1 36.87 51.84zM32.33 59.84a1.05 1.05 0 0 1-.49-.13 1 1 0 0 1-.38-1.37l2.27-4A1 1 0 0 1 35.09 54a1 1 0 0 1 .38 1.36l-2.27 4A1 1 0 0 1 32.33 59.84zM48.87 51.84a1.13 1.13 0 0 1-.5-.13A1 1 0 0 1 48 50.34l1.13-2A1 1 0 0 1 50.49 48a1 1 0 0 1 .38 1.36l-1.13 2A1 1 0 0 1 48.87 51.84zM45.46 57.84a1.12 1.12 0 0 1-.49-.13 1 1 0 0 1-.38-1.37l1.7-3a1 1 0 0 1 1.75 1l-1.71 3A1 1 0 0 1 45.46 57.84zM42.06 63.84a1.05 1.05 0 0 1-.49-.13 1 1 0 0 1-.38-1.37l1.14-2A1 1 0 0 1 43.69 60a1 1 0 0 1 .38 1.36l-1.14 2A1 1 0 0 1 42.06 63.84z"></path></g></svg>