<svg xmlns="http://www.w3.org/2000/svg" viewBox="0 0 64 64" id="rain"><g data-name="Layer 5"><path fill="#ededed" d="M64,26.41A10.54,10.54,0,0,1,53.51,37h-43a10.59,10.59,0,0,1,0-21.18,14.67,14.67,0,0,1,28.79-4.13,10.44,10.44,0,0,1,13.87,4.14h.36A10.55,10.55,0,0,1,64,26.41Z"></path><path fill="#e2e2e2" d="M64,26.41A10.54,10.54,0,0,1,53.51,37h-43A10.6,10.6,0,0,1,.43,23.41,10.5,10.5,0,0,0,10.49,31h43a10.5,10.5,0,0,0,10.06-7.59A10.61,10.61,0,0,1,64,26.41Z"></path><path fill="#282f39" d="M25.18 3a12.74 12.74 0 0 1 12.18 9.24 2 2 0 0 0 1.13 1.29 2 2 0 0 0 .79.16 2 2 0 0 0 .92-.22 8.41 8.41 0 0 1 3.87-.94 8.49 8.49 0 0 1 7.34 4.29 2 2 0 0 0 1.76 1h.34a8.59 8.59 0 0 1 0 17.18h-43a8.59 8.59 0 0 1 0-17.18 2 2 0 0 0 2-2A12.77 12.77 0 0 1 25.18 3m0-2A14.76 14.76 0 0 0 10.49 15.82a10.59 10.59 0 0 0 0 21.18h43a10.59 10.59 0 0 0 0-21.18h-.36a10.44 10.44 0 0 0-13.87-4.14A14.7 14.7 0 0 0 25.18 1zM14 43a1 1 0 0 1-1-1V39a1 1 0 0 1 2 0v3A1 1 0 0 1 14 43zM14 49a1 1 0 0 1-1-1V45a1 1 0 0 1 2 0v3A1 1 0 0 1 14 49zM14 56a1 1 0 0 1-1-1V52a1 1 0 0 1 2 0v3A1 1 0 0 1 14 56zM14 63a1 1 0 0 1-1-1V59a1 1 0 0 1 2 0v3A1 1 0 0 1 14 63zM26 43a1 1 0 0 1-1-1V39a1 1 0 0 1 2 0v3A1 1 0 0 1 26 43zM26 49a1 1 0 0 1-1-1V46a1 1 0 0 1 2 0v2A1 1 0 0 1 26 49zM26 56a1 1 0 0 1-1-1V52a1 1 0 0 1 2 0v3A1 1 0 0 1 26 56zM38 43a1 1 0 0 1-1-1V39a1 1 0 0 1 2 0v3A1 1 0 0 1 38 43zM38 49a1 1 0 0 1-1-1V46a1 1 0 0 1 2 0v2A1 1 0 0 1 38 49zM38 56a1 1 0 0 1-1-1V52a1 1 0 0 1 2 0v3A1 1 0 0 1 38 56zM50 43a1 1 0 0 1-1-1V39a1 1 0 0 1 2 0v3A1 1 0 0 1 50 43zM50 49a1 1 0 0 1-1-1V46a1 1 0 0 1 2 0v2A1 1 0 0 1 50 49zM50 56a1 1 0 0 1-1-1V52a1 1 0 0 1 2 0v3A1 1 0 0 1 50 56zM50 63a1 1 0 0 1-1-1V59a1 1 0 0 1 2 0v3A1 1 0 0 1 50 63z"></path></g></svg>