<svg xmlns="http://www.w3.org/2000/svg" viewBox="0 0 64 64" id="snowflake"><path fill="#282f39" d="M63.51 36.14 58.17 33H63a1 1 0 0 0 0-2h-4.83l5.34-3.14a1 1 0 1 0-1-1.72L54.23 31H34.41l14-14 9.65-2.76a1 1 0 0 0 .71-1.24 1 1 0 0 0-1.23-.69l-6.19 1.77L55 10.43A1 1 0 0 0 53.57 9l-3.64 3.63 1.77-6.16a1 1 0 0 0-.7-1.24 1 1 0 0 0-1.23.69L47 15.57l-14 14V9.76L37.87 1a1 1 0 0 0-.38-1.36 1 1 0 0 0-1.36.36L33 5.64V.5a1 1 0 0 0-2 0v5.14L27.87 0a1 1 0 0 0-1.36-.39A1 1 0 0 0 26.13 1L31 9.76v19.83l-14-14-2.42-9.3a1 1 0 1 0-1.93.51l1.55 6-3.41-3.43a1 1 0 1 0-1.42 1.42l3.42 3.41-6-1.55a1 1 0 0 0-1.21.71 1 1 0 0 0 .71 1.22L15.58 17l14 14H9.77l-8.26-4.86a1 1 0 1 0-1 1.72L5.83 31H1a1 1 0 0 0 0 2h4.83L.49 36.14A1 1 0 0 0 1 38a1 1 0 0 0 .51-.14L9.77 33h19.82l-14 14-9.67 2.78a1 1 0 0 0 .27 2 1 1 0 0 0 .28 0l6.18-1.77L9 53.57A1 1 0 0 0 9 55a1 1 0 0 0 1.41 0l3.64-3.63-1.75 6.17a1 1 0 0 0 .7 1.23.84.84 0 0 0 .27 0 1 1 0 0 0 1-.73L17 48.43l14-14v19.81L26.13 63a1 1 0 0 0 .38 1.35 1 1 0 0 0 .49.13 1 1 0 0 0 .87-.51L31 58.36v5.14a1 1 0 0 0 2 0v-5.14L36.13 64a1 1 0 0 0 .87.51 1 1 0 0 0 .49-.13 1 1 0 0 0 .38-1.38L33 54.24V34.41l14 14 2.41 9.28a1 1 0 0 0 1 .75.78.78 0 0 0 .26 0 1 1 0 0 0 .71-1.21l-1.55-6 3.41 3.42a1 1 0 0 0 1.42 0 1 1 0 0 0 0-1.42l-3.45-3.43 6 1.55a.69.69 0 0 0 .25 0 1 1 0 0 0 .25-2L48.42 47l-14-14h19.81l8.26 4.86A1 1 0 0 0 63 38a1 1 0 0 0 .51-1.86Z" data-name="Layer 18"></path></svg>