<svg xmlns="http://www.w3.org/2000/svg" viewBox="0 0 64 64" id="sun"><g data-name="Layer 2"><circle cx="32" cy="32" r="20" fill="#f8b234"></circle><path fill="#f7a623" d="M52,32A20,20,0,0,1,17.16,45.4,19.74,19.74,0,0,0,27,48,20,20,0,0,0,41.84,14.6,19.94,19.94,0,0,1,52,32Z"></path><path fill="#282f39" d="M32 14A18 18 0 1 1 14 32 18 18 0 0 1 32 14m0-2A20 20 0 1 0 52 32 20 20 0 0 0 32 12zM32 9a1 1 0 0 1-1-1V1a1 1 0 0 1 2 0V8A1 1 0 0 1 32 9z"></path><path fill="#282f39" d="M32 64a1 1 0 0 1-1-1V56a1 1 0 0 1 2 0v7A1 1 0 0 1 32 64zM8 33H1a1 1 0 0 1 0-2H8a1 1 0 0 1 0 2zM63 33H56a1 1 0 0 1 0-2h7a1 1 0 0 1 0 2zM10.08 54.92a1 1 0 0 1-.71-.29 1 1 0 0 1 0-1.42l5-5a1 1 0 1 1 1.42 1.42l-5 5A1 1 0 0 1 10.08 54.92zM49 16a1 1 0 0 1-.71-.29 1 1 0 0 1 0-1.42l5-5a1 1 0 1 1 1.42 1.42l-5 5A1 1 0 0 1 49 16zM15 16a1 1 0 0 1-.71-.29l-5-5a1 1 0 1 1 1.42-1.42l5 5a1 1 0 0 1 0 1.42A1 1 0 0 1 15 16zM53.92 54.92a1 1 0 0 1-.71-.29l-5-5a1 1 0 0 1 1.42-1.42l5 5a1 1 0 0 1 0 1.42A1 1 0 0 1 53.92 54.92z"></path></g></svg>