<svg xmlns="http://www.w3.org/2000/svg" viewBox="0 0 30 30" id="thermometer"><path d="M16 21.278V12a1 1 0 1 0-2 0v9.278c-.595.347-1 .985-1 1.722 0 1.103.897 2 2 2s2-.897 2-2c0-.737-.405-1.375-1-1.722z"></path><path d="M15 1c-2.757 0-5 2.243-5 5v13.712a5.921 5.921 0 0 0-.851 4.623c.507 2.268 2.367 4.093 4.628 4.543.405.081.811.12 1.214.12A5.995 5.995 0 0 0 21 23c0-1.17-.345-2.3-1-3.288V6c0-2.757-2.243-5-5-5zm2.535 25.095c-.944.773-2.141 1.062-3.368.822-1.498-.298-2.729-1.511-3.066-3.018a3.957 3.957 0 0 1 .701-3.274 1 1 0 0 0 .198-.598V6c0-1.654 1.346-3 3-3s3 1.346 3 3v14.027c0 .215.069.425.198.597.525.705.802 1.526.802 2.376a3.99 3.99 0 0 1-1.465 3.095z"></path></svg>