<svg xmlns="http://www.w3.org/2000/svg" enable-background="new 0 0 24 24" viewBox="0 0 24 24" id="sun"><path d="M12,6.5C9,6.5,6.5,9,6.5,12c0,3,2.5,5.5,5.5,5.5c3,0,5.5-2.5,5.5-5.5C17.5,9,15,6.5,12,6.5z M12,5L12,5c0.6,0,1-0.4,1-1V3
	c0-0.6-0.4-1-1-1s-1,0.4-1,1v1C11,4.6,11.4,5,12,5z M12,19c-0.6,0-1,0.4-1,1v1c0,0.6,0.4,1,1,1h0c0.6,0,1-0.4,1-1v-1
	C13,19.4,12.6,19,12,19z M21,11h-1c-0.6,0-1,0.4-1,1s0.4,1,1,1h1c0.6,0,1-0.4,1-1S21.6,11,21,11z M5,12c0-0.6-0.4-1-1-1H3
	c-0.6,0-1,0.4-1,1s0.4,1,1,1h1C4.6,13,5,12.6,5,12z M18.4,17c-0.4-0.4-1-0.4-1.4,0s-0.4,1,0,1.4l0.7,0.7c0.2,0.2,0.4,0.3,0.7,0.3
	l0,0c0.3,0,0.5-0.1,0.7-0.3c0.4-0.4,0.4-1,0-1.4L18.4,17z M5.6,7c0.2,0.2,0.4,0.3,0.7,0.3v0c0.3,0,0.5-0.1,0.7-0.3
	c0.4-0.4,0.4-1,0-1.4L6.3,4.9c-0.4-0.4-1-0.4-1.4,0c-0.4,0.4-0.4,1,0,1.4L5.6,7z M5.6,17l-0.7,0.7c-0.2,0.2-0.3,0.4-0.3,0.7
	c0,0.6,0.4,1,1,1c0.3,0,0.5-0.1,0.7-0.3l0.7-0.7c0.4-0.4,0.4-1,0-1.4S6,16.6,5.6,17z M17.7,7.3c0.3,0,0.5-0.1,0.7-0.3l0.7-0.7
	c0.4-0.4,0.4-1,0-1.4c-0.4-0.4-1-0.4-1.4,0l-0.7,0.7c-0.2,0.2-0.3,0.4-0.3,0.7C16.7,6.9,17.1,7.3,17.7,7.3z"></path></svg>